<?xml version="1.0" standalone="no"?>
<!DOCTYPE svg PUBLIC "-//W3C//DTD SVG 20010904//EN"
 "http://www.w3.org/TR/2001/REC-SVG-20010904/DTD/svg10.dtd">
<svg version="1.0" xmlns="http://www.w3.org/2000/svg"
 width="260.000000pt" height="260.000000pt" viewBox="0 0 260.000000 260.000000"
 preserveAspectRatio="xMidYMid meet">
<metadata>
Created by potrace 1.11, written by Peter Selinger 2001-2013
</metadata>
<g transform="translate(0.000000,260.000000) scale(0.100000,-0.100000)"
fill="#000000" stroke="none">
<path d="M1272 2108 c-6 -7 -9 -57 -9 -112 2 -82 5 -101 20 -110 12 -8 22 -8
35 0 14 9 18 29 20 109 3 101 -4 125 -38 125 -10 0 -22 -6 -28 -12z"/>
<path d="M886 2005 c-24 -18 -18 -42 36 -130 38 -61 47 -70 73 -70 23 0 31 5
33 21 3 24 -94 194 -111 194 -7 0 -20 -7 -31 -15z"/>
<path d="M1663 2001 c-10 -11 -36 -53 -57 -94 -44 -81 -43 -107 1 -107 25 0
34 10 76 83 52 92 56 111 28 127 -26 13 -27 13 -48 -9z"/>
<path d="M1188 1765 c-89 -22 -146 -54 -215 -118 -194 -181 -202 -483 -18
-676 190 -199 505 -199 691 1 179 194 178 470 -4 662 -109 116 -299 171 -454
131z"/>
<path d="M590 1711 c-16 -31 -5 -43 82 -94 86 -50 121 -55 131 -18 4 17 -28
61 -45 61 -3 0 -32 16 -64 35 -66 40 -89 43 -104 16z"/>
<path d="M1895 1689 c-89 -52 -104 -66 -98 -90 10 -37 45 -33 131 18 87 51 98
63 82 94 -15 28 -36 24 -115 -22z"/>
<path d="M492 1328 c-6 -6 -12 -20 -12 -29 0 -32 25 -40 125 -37 80 2 100 6
109 21 8 12 8 22 0 35 -9 14 -29 18 -110 20 -69 2 -103 -1 -112 -10z"/>
<path d="M1898 1329 c-10 -5 -18 -18 -18 -28 0 -35 24 -42 125 -39 80 2 100 6
109 21 8 12 8 22 0 35 -9 14 -28 17 -105 19 -52 2 -102 -2 -111 -8z"/>
<path d="M738 1023 c-10 -2 -18 -9 -18 -14 0 -5 -4 -9 -9 -9 -17 0 -120 -64
-126 -78 -7 -19 13 -52 32 -52 9 0 54 21 100 47 72 40 83 50 83 74 0 15 -7 29
-16 33 -17 6 -19 6 -46 -1z"/>
<path d="M1801 1012 c-15 -29 9 -55 93 -101 84 -46 101 -49 116 -22 16 31 5
44 -81 94 -87 51 -113 57 -128 29z"/>
<path d="M957 777 c-36 -49 -87 -142 -87 -160 0 -19 33 -39 52 -32 17 7 108
162 108 185 0 9 -11 22 -25 28 -22 10 -27 8 -48 -21z"/>
<path d="M1583 793 c-19 -7 -16 -41 5 -71 11 -15 31 -50 47 -79 30 -57 47 -68
76 -53 28 15 24 37 -19 111 -21 35 -41 72 -45 82 -6 16 -37 21 -64 10z"/>
<path d="M1271 706 c-8 -9 -11 -48 -9 -111 2 -80 6 -100 21 -109 12 -8 22 -8
35 0 14 9 18 29 20 109 3 101 -4 125 -38 125 -10 0 -23 -6 -29 -14z"/>
</g>
</svg>
